PathFileType	3	(X/Y/Z)	D:\Jess\Healthy\Labelled\HA16\20250507\SRRun02.trc
DataRate	CameraRate	NumFrames	NumMarkers	Units	OrigDataRate	OrigDataStartFrame	OrigNumFrames
250.0	250.0	4	37	mm	250.0	35625	2501
Frame#	Time	C7			T10			CLAV			LSHO			RSHO			LASIS			RASIS			LPSIS			RPSIS			LILCR			RILCR			LGTR			LTHI			LLTHI			LLEP			LMEP			LPSH			LLSH			LDSH			LLMAL			LMMAL			LTOE			L5TH			LHEE			RGTR			RTHI			RLTHI			RLEP			RMEP			RPSH			RLSH			RDSH			RLMAL			RMMAL			RTOE			R5TH			RHEE			
		X1	Y1	Z1	X2	Y2	Z2	X3	Y3	Z3	X4	Y4	Z4	X5	Y5	Z5	X6	Y6	Z6	X7	Y7	Z7	X8	Y8	Z8	X9	Y9	Z9	X10	Y10	Z10	X11	Y11	Z11	X12	Y12	Z12	X13	Y13	Z13	X14	Y14	Z14	X15	Y15	Z15	X16	Y16	Z16	X17	Y17	Z17	X18	Y18	Z18	X19	Y19	Z19	X20	Y20	Z20	X21	Y21	Z21	X22	Y22	Z22	X23	Y23	Z23	X24	Y24	Z24	X25	Y25	Z25	X26	Y26	Z26	X27	Y27	Z27	X28	Y28	Z28	X29	Y29	Z29	X30	Y30	Z30	X31	Y31	Z31	X32	Y32	Z32	X33	Y33	Z33	X34	Y34	Z34	X35	Y35	Z35	X36	Y36	Z36	X37	Y37	Z37	

626	142.496	1082.125436236931	1391.393652852612	-312.1703572908788	1033.083797031333	1161.466631347847	-281.3973483940019	1207.685087732835	1317.596791908947	-365.8659098710891	1202.641261575072	1366.004407654793	-219.1135817894632	1089.017330753793	1365.869879382269	-456.8244455274581	1182.951280344744	948.6760333961691	-449.6929702640963	1203.247792692907	920.1294184378966	-235.2176240898976	1016.355993909285	995.898985076156	-350.4976532278731	1024.504265074259	992.4476774994138	-305.1079884064004	1115.283538821202	1035.123555886521	-475.8795652884511	1167.055058503263	1001.552455830524	-202.6332232523046	1118.867938693531	882.081063229801	-520.4657979603683	1247.391368095414	745.5757101458812	-447.2261892277493	1174.038832084078	634.3558095694018	-486.8158166970613	1214.210224341379	499.4200557646994	-465.6733428604126	nan	nan	nan	1285.530270883091	428.7254123679633	-411.9665058532492	1226.7997161066	313.6022273706907	-475.7179606225636	1304.372343259875	242.0244107753184	-409.4779066286364	1279.36172678168	123.4003588682228	-440.2005746443729	nan	nan	nan	1414.724455294633	126.1488117188396	-426.1915087434542	1393.543940779437	79.6999239010143	-458.2220533927197	1222.739528345794	80.72353618799512	-390.8971678466725	1095.85855608509	846.4106928225822	-158.4900511515144	1142.225667809528	675.5190077046609	-252.6461021472859	1009.617290755084	641.4309144271919	-189.4412673020428	938.2906885626222	520.2868852572738	-212.1492394335525	nan	nan	nan	944.2126631577595	425.2511028338275	-262.3510698136612	838.4636158328429	375.140147754536	-206.3027998350228	821.7922554629896	256.9325916615866	-256.7037768187631	725.7052098165482	215.964085461382	-234.1788456747594	nan	nan	nan	766.5035548367395	79.56501221747432	-232.9930643016531	724.2937612768849	93.69452381482549	-207.1831982272772	677.7436826758309	250.7091226241091	-288.1878712464614	
627	142.5	1082.251431932809	1391.375531559855	-312.4907201497422	1033.273670006758	1161.778189718308	-281.6138120349943	1207.658022582943	1317.91220440794	-366.4114581029854	1202.89876421691	1366.273279413195	-220.0446217280396	1089.16963354327	1365.696580399517	-457.1850691758547	1183.281164939376	949.0697621799319	-450.1806279830412	1203.887300741101	920.7893626415074	-236.6515785360502	1016.892491766031	996.8642691758038	-350.9472997236819	1025.244495796748	993.3175743926411	-305.6046911460529	1115.558172930843	1035.634863087214	-476.5875944594171	1168.055100738153	1002.241496139294	-203.8866864133182	1119.864212466595	882.7395882060318	-521.052967662532	1246.737291611831	743.7008343506367	-447.6527687203208	1173.469857541073	633.7947754836187	-488.0946830673146	1213.662414901986	498.7278573317037	-466.324027881834	nan	nan	nan	1285.98261056632	429.3965746390866	-412.4561632145361	1229.546317321398	313.0599029958005	-475.9865934148149	1308.938217770796	243.2365058882574	-409.9600421117663	1286.664345601464	123.7372180106352	-440.2372722564141	nan	nan	nan	1421.988445774814	130.0389375535806	-426.6855011473766	1401.922749067965	82.89197612797251	-458.4117664035937	1231.250548018505	79.62721175388782	-390.8072224379102	1096.873186024324	847.2596661744882	-158.737605424001	1143.291016203307	675.6718704045819	-252.2956440492418	1010.297141122975	642.1332247846639	-189.7079220533707	939.4672034004728	520.2834484167139	-212.4717283020412	nan	nan	nan	943.9222601299114	424.9450484708169	-262.5139700503228	837.4949949941431	376.6974877353211	-205.9623593854043	818.3725106126495	258.8908467841843	-256.2270746903366	721.6738778341279	219.9621166224791	-233.2078437931599	nan	nan	nan	758.8780374858344	82.4290492430942	-232.2347952765048	717.0081938379072	97.62452274445786	-206.4409279556052	674.8193721619048	256.1187881722126	-287.1627322618148	
628	142.504	1082.368971076403	1391.219961122217	-312.8855342657726	1033.367485612042	1161.933297950165	-281.9654700628384	1207.67957662308	1317.997977468105	-366.9380724646518	1203.096759313861	1366.337853899061	-220.9111757274456	1089.41300766463	1365.385110421891	-457.641996422917	1183.538915489962	949.2140116757432	-450.6645047313304	1204.450959937639	921.3630725211339	-238.0411865253109	1017.305559163938	997.5959590218639	-351.4014177275083	1025.858232228659	993.965742479476	-306.1012074384209	1115.776840212581	1035.931976008312	-477.3393154328155	1168.860034192695	1002.787319879019	-205.0885167701868	1120.742340494432	883.064646873059	-521.6067184013033	1245.982285370213	741.6213432154153	-447.9752239213124	1173.028357985564	632.9973471010388	-489.3233594259135	1213.289549722996	497.9755796957883	-466.9460051528046	nan	nan	nan	1286.428099447896	429.904004533352	-412.9400320737406	1231.979776697905	312.5296896977157	-476.2251218779444	1312.991224971056	244.3099282598122	-410.4357218378091	1293.108662736976	124.0824525014	-440.2692864722393	nan	nan	nan	1428.339297063726	133.5479456596286	-427.3356402963929	1409.222212023357	85.83735088824352	-458.7768271085948	1238.874984990677	78.70059407659043	-390.6393574862363	1097.866634586449	847.9848169168082	-158.9767758753205	1144.575877098262	675.7564420775959	-251.991736582641	1011.316015510054	642.4828915362962	-190.0149387101283	941.085284074003	519.8893424098923	-212.8486406268946	nan	nan	nan	943.9442891539704	424.283043217034	-262.7134734059366	836.7981347588311	378.0773098355373	-205.6822664058624	815.0657057318215	260.771933201176	-255.8070802007758	717.7245614392904	224.0379922577654	-232.3095455939467	nan	nan	nan	751.3655263026525	85.52202039666504	-231.4151443161743	709.8544709495113	101.7818261215484	-205.6496384530207	671.9764850918078	261.4993404666936	-286.2505355247111	
629	142.508	1082.477804189211	1390.929430971407	-313.3557903848709	1033.368040434398	1161.93189042253	-282.4440131543262	1207.748376121455	1317.857434154491	-367.4495187795907	1203.241708750658	1366.199842783567	-221.712912461254	1089.737378784977	1364.939271587757	-458.1924948683906	1183.724182404037	949.1168086643237	-451.1419682287387	1204.941713319018	921.8444453462039	-239.3781458468644	1017.596014592825	998.0778055507971	-351.8615563054964	1026.345895447825	994.3777772584087	-306.5998993871953	1115.937038539946	1036.019676856612	-478.1219358054549	1169.463176265876	1003.183845849786	-206.2236878337323	1121.489032653264	883.055088615147	-522.1281012054301	1245.151974208341	739.3908636935589	-448.195707675826	1172.717548215876	631.9809561626897	-490.4773063901685	1213.09113623511	497.1657222735302	-467.5366134379767	nan	nan	nan	1286.871574786597	430.2339987088055	-413.4151341149224	1234.098762178348	311.9852080643217	-476.4388469880654	1316.524853569086	245.199933216261	-410.8991294502669	1298.675974860468	124.3776910777589	-440.2987833270944	nan	nan	nan	1433.780560115689	136.6007589594643	-428.1155816651574	1415.438560647406	88.45020973130039	-459.2943964648997	1245.570878915641	77.89480273690822	-390.4030908122343	1098.840675976441	848.5719242973706	-159.2168873605738	1146.067260085806	675.7671562996767	-251.7615708864303	1012.675333173746	642.4600796067681	-190.3610154412158	943.1214748520772	519.1173331635299	-213.2723016077972	nan	nan	nan	944.2657076398674	423.2803717970839	-262.9330226751774	836.3617154456383	379.3000088522685	-205.4587976213366	811.8849536936601	262.5908768908457	-255.4286925121679	713.8792602408432	228.1955776146374	-231.4805990476104	nan	nan	nan	743.9913793282466	88.84120227812753	-230.5268718379185	702.8575853472221	106.1635222199287	-204.8059632389844	669.2358371595501	266.8539497877898	-285.4526798323346	
